name C:/MyDriveSym/Projects/mobilecap/Data\Session20210827_0001\mocap\ForceDataProcessed\DJAsym2_forces.mot
datacolumns 28
datarows 20
range 1.55450000 1.56400000
endheader 
time	R_ground_force_vx	R_ground_force_vy	R_ground_force_vz	R_ground_force_px	R_ground_force_py	R_ground_force_pz	R_ground_torque_x	R_ground_torque_y	R_ground_torque_z	L_ground_force_vx	L_ground_force_vy	L_ground_force_vz	L_ground_force_px	L_ground_force_py	L_ground_force_pz	L_ground_torque_x	L_ground_torque_y	L_ground_torque_z	3_ground_force_vx	3_ground_force_vy	3_ground_force_vz	3_ground_force_px	3_ground_force_py	3_ground_force_pz	3_ground_torque_x	3_ground_torque_y	3_ground_torque_z	
          1.55450000	       -253.90056900	        967.06223800	       -100.40994500	         -0.20198200	          0.00600000	         -0.47319900	          0.00000000	         -5.55503500	          0.00000000	        -48.39902800	        164.09862500	         -3.45861700	         -0.08257900	          0.00600000	         -0.76139000	          0.00000000	          0.16650400	          0.00000000	          0.00000000	          0.00000000	          0.00000000	          0.00000000	          0.00000000	          0.00000000	          0.00000000	          0.00000000	          0.00000000	
          1.55500000	       -254.99283700	        967.53533800	        -99.76229500	         -0.20171600	          0.00600000	         -0.47324800	          0.00000000	         -5.57623000	          0.00000000	        -44.56953000	        162.90539900	         -4.29001400	         -0.08294800	          0.00600000	         -0.76068400	          0.00000000	          0.25835300	          0.00000000	          0.00000000	          0.00000000	          0.00000000	          0.00000000	          0.00000000	          0.00000000	          0.00000000	          0.00000000	          0.00000000	
          1.55550000	       -256.13792500	        967.98030800	        -99.07859800	         -0.20145200	          0.00600000	         -0.47329900	          0.00000000	         -5.59903900	          0.00000000	        -40.80162600	        161.71098800	         -5.16084400	         -0.08332900	          0.00600000	         -0.75996700	          0.00000000	          0.35710500	          0.00000000	          0.00000000	          0.00000000	          0.00000000	          0.00000000	          0.00000000	          0.00000000	          0.00000000	          0.00000000	          0.00000000	
          1.55600000	       -257.31430400	        968.39380200	        -98.36133400	         -0.20118900	          0.00600000	         -0.47335300	          0.00000000	         -5.62329900	          0.00000000	        -37.11184000	        160.52569700	         -6.06535400	         -0.08372100	          0.00600000	         -0.75924100	          0.00000000	          0.46206500	          0.00000000	          0.00000000	          0.00000000	          0.00000000	          0.00000000	          0.00000000	          0.00000000	          0.00000000	          0.00000000	          0.00000000	
          1.55650000	       -258.50121600	        968.77295500	        -97.61306100	         -0.20092900	          0.00600000	         -0.47340900	          0.00000000	         -5.64886800	          0.00000000	        -33.51504300	        159.35846300	         -6.99773800	         -0.08412200	          0.00600000	         -0.75850800	          0.00000000	          0.57246500	          0.00000000	          0.00000000	          0.00000000	          0.00000000	          0.00000000	          0.00000000	          0.00000000	          0.00000000	          0.00000000	          0.00000000	
          1.55700000	       -259.67880200	        969.11539800	        -96.83638500	         -0.20067200	          0.00600000	         -0.47346700	          0.00000000	         -5.67562200	          0.00000000	        -30.02439900	        158.21702900	         -7.95229600	         -0.08453300	          0.00600000	         -0.75777100	          0.00000000	          0.68752000	          0.00000000	          0.00000000	          0.00000000	          0.00000000	          0.00000000	          0.00000000	          0.00000000	          0.00000000	          0.00000000	          0.00000000	
          1.55750000	       -260.82820800	        969.41926600	        -96.03392900	         -0.20041900	          0.00600000	         -0.47352700	          0.00000000	         -5.70345500	          0.00000000	        -26.65133800	        157.10812900	         -8.92358100	         -0.08495200	          0.00600000	         -0.75703000	          0.00000000	          0.80647400	          0.00000000	          0.00000000	          0.00000000	          0.00000000	          0.00000000	          0.00000000	          0.00000000	          0.00000000	          0.00000000	          0.00000000	
          1.55800000	       -261.93164600	        969.68318600	        -95.20832800	         -0.20017100	          0.00600000	         -0.47358900	          0.00000000	         -5.73227100	          0.00000000	        -23.40557000	        156.03766000	         -9.90655600	         -0.08537900	          0.00600000	         -0.75628800	          0.00000000	          0.92862200	          0.00000000	          0.00000000	          0.00000000	          0.00000000	          0.00000000	          0.00000000	          0.00000000	          0.00000000	          0.00000000	          0.00000000	
          1.55850000	       -262.97244700	        969.90625200	        -94.36222400	         -0.19992800	          0.00600000	         -0.47365200	          0.00000000	         -5.76197700	          0.00000000	        -20.29518200	        155.01082700	        -10.89670300	         -0.08581200	          0.00600000	         -0.75554600	          0.00000000	          1.05331800	          0.00000000	          0.00000000	          0.00000000	          0.00000000	          0.00000000	          0.00000000	          0.00000000	          0.00000000	          0.00000000	          0.00000000	
          1.55900000	       -263.93507100	        970.08796100	        -93.49828700	         -0.19969100	          0.00600000	         -0.47371500	          0.00000000	         -5.79248300	          0.00000000	        -17.32679300	        154.03226100	        -11.89006500	         -0.08625100	          0.00600000	         -0.75480500	          0.00000000	          1.17995500	          0.00000000	          0.00000000	          0.00000000	          0.00000000	          0.00000000	          0.00000000	          0.00000000	          0.00000000	          0.00000000	          0.00000000	
          1.55950000	       -264.80512300	        970.22812300	        -92.61924300	         -0.19946000	          0.00600000	         -0.47377900	          0.00000000	         -5.82370500	          0.00000000	        -14.50574700	        153.10613500	        -12.88318300	         -0.08669500	          0.00600000	         -0.75406600	          0.00000000	          1.30793300	          0.00000000	          0.00000000	          0.00000000	          0.00000000	          0.00000000	          0.00000000	          0.00000000	          0.00000000	          0.00000000	          0.00000000	
          1.56000000	       -265.56936200	        970.32679900	        -91.72788300	         -0.19923600	          0.00600000	         -0.47384300	          0.00000000	         -5.85557100	          0.00000000	        -11.83629500	        152.23626500	        -13.87295700	         -0.08714400	          0.00600000	         -0.75333100	          0.00000000	          1.43664500	          0.00000000	          0.00000000	          0.00000000	          0.00000000	          0.00000000	          0.00000000	          0.00000000	          0.00000000	          0.00000000	          0.00000000	
          1.56050000	       -266.21571700	        970.38427700	        -90.82705500	         -0.19902000	          0.00600000	         -0.47390700	          0.00000000	         -5.88802500	          0.00000000	         -9.32173400	        151.42615500	        -14.85651400	         -0.08759500	          0.00600000	         -0.75260200	          0.00000000	          1.56546100	          0.00000000	          0.00000000	          0.00000000	          0.00000000	          0.00000000	          0.00000000	          0.00000000	          0.00000000	          0.00000000	          0.00000000	
          1.56100000	       -266.73332900	        970.40109800	        -89.91963100	         -0.19881200	          0.00600000	         -0.47397100	          0.00000000	         -5.92102400	          0.00000000	         -6.96448400	        150.67899500	        -15.83111000	         -0.08804900	          0.00600000	         -0.75187900	          0.00000000	          1.69374400	          0.00000000	          0.00000000	          0.00000000	          0.00000000	          0.00000000	          0.00000000	          0.00000000	          0.00000000	          0.00000000	          0.00000000	
          1.56150000	       -267.11259600	        970.37809300	        -89.00846700	         -0.19861300	          0.00600000	         -0.47403500	          0.00000000	         -5.95453000	          0.00000000	         -4.76610900	        149.99762300	        -16.79404800	         -0.08850500	          0.00600000	         -0.75116700	          0.00000000	          1.82087400	          0.00000000	          0.00000000	          0.00000000	          0.00000000	          0.00000000	          0.00000000	          0.00000000	          0.00000000	          0.00000000	          0.00000000	
          1.56200000	       -267.34521900	        970.31640600	        -88.09635300	         -0.19842300	          0.00600000	         -0.47409700	          0.00000000	         -5.98850200	          0.00000000	         -2.72730200	        149.38447700	        -17.74261800	         -0.08896100	          0.00600000	         -0.75046500	          0.00000000	          1.94627700	          0.00000000	          0.00000000	          0.00000000	          0.00000000	          0.00000000	          0.00000000	          0.00000000	          0.00000000	          0.00000000	          0.00000000	
          1.56250000	       -267.42424900	        970.21749200	        -87.18595100	         -0.19824300	          0.00600000	         -0.47415900	          0.00000000	         -6.02289300	          0.00000000	         -0.84785600	        148.84155600	        -18.67406500	         -0.08941700	          0.00600000	         -0.74977700	          0.00000000	          2.06944900	          0.00000000	          0.00000000	          0.00000000	          0.00000000	          0.00000000	          0.00000000	          0.00000000	          0.00000000	          0.00000000	          0.00000000	
          1.56300000	       -267.34410400	        970.08310400	        -86.27974300	         -0.19807300	          0.00600000	         -0.47422000	          0.00000000	         -6.05764900	          0.00000000	          0.87334400	        148.37037700	        -19.58559100	         -0.08987200	          0.00600000	         -0.74910500	          0.00000000	          2.18996300	          0.00000000	          0.00000000	          0.00000000	          0.00000000	          0.00000000	          0.00000000	          0.00000000	          0.00000000	          0.00000000	          0.00000000	
          1.56350000	       -267.10057300	        969.91526100	        -85.38000700	         -0.19791300	          0.00600000	         -0.47427900	          0.00000000	         -6.09270700	          0.00000000	          2.43827900	        147.97192600	        -20.47441000	         -0.09032600	          0.00600000	         -0.74845100	          0.00000000	          2.30746500	          0.00000000	          0.00000000	          0.00000000	          0.00000000	          0.00000000	          0.00000000	          0.00000000	          0.00000000	          0.00000000	          0.00000000	
          1.56400000	       -266.69078500	        969.71620200	        -84.48882400	         -0.19776400	          0.00600000	         -0.47433600	          0.00000000	         -6.12799200	          0.00000000	          3.84969700	        147.64661400	        -21.33782900	         -0.09077900	          0.00600000	         -0.74781600	          0.00000000	          2.42164700	          0.00000000	          0.00000000	          0.00000000	          0.00000000	          0.00000000	          0.00000000	          0.00000000	          0.00000000	          0.00000000	          0.00000000	
